<svg width="8" height="10" viewBox="0 0 8 10" fill="none" xmlns="http://www.w3.org/2000/svg">
<path d="M0.125893 5.21107L4.64943 9.69587C4.72491 9.77073 4.82519 9.8125 4.92947 9.8125C5.03374 9.8125 5.13402 9.77073 5.2095 9.69587L5.21437 9.6908C5.25108 9.6545 5.28032 9.61081 5.3003 9.56239C5.32028 9.51397 5.33058 9.46182 5.33058 9.40913C5.33058 9.35643 5.32028 9.30428 5.3003 9.25586C5.28032 9.20744 5.25108 9.16375 5.21437 9.12745L0.954627 4.90448L5.21437 0.683196C5.25108 0.646901 5.28032 0.603213 5.3003 0.55479C5.32028 0.506366 5.33058 0.454221 5.33058 0.401524C5.33058 0.348827 5.32028 0.296681 5.3003 0.248258C5.28032 0.199835 5.25108 0.156147 5.21437 0.119852L5.2095 0.114784C5.13402 0.0399149 5.03374 -0.0018513 4.92946 -0.0018513C4.82519 -0.00185129 4.72491 0.0399149 4.64943 0.114784L0.125893 4.59958C0.0861102 4.63902 0.0544388 4.68646 0.0327986 4.73901C0.0111584 4.79157 -2.16999e-07 4.84815 -2.14499e-07 4.90532C-2.12e-07 4.9625 0.0111584 5.01908 0.0327986 5.07164C0.0544388 5.12419 0.0861102 5.17163 0.125893 5.21107Z" fill="black"/>
<g clip-path="url(#clip0_29_245)">
<path d="M2.45646 5.39857L6.98 9.88337C7.05548 9.95823 7.15575 10 7.26003 10C7.36431 10 7.46459 9.95823 7.54006 9.88337L7.54493 9.8783C7.58165 9.842 7.61089 9.79831 7.63087 9.74989C7.65084 9.70147 7.66115 9.64932 7.66115 9.59663C7.66115 9.54393 7.65084 9.49178 7.63087 9.44336C7.61089 9.39494 7.58165 9.35125 7.54493 9.31495L3.28519 5.09198L7.54493 0.870696C7.58165 0.834401 7.61089 0.790713 7.63087 0.74229C7.65084 0.693866 7.66115 0.641721 7.66115 0.589024C7.66115 0.536327 7.65084 0.484181 7.63087 0.435758C7.61089 0.387335 7.58165 0.343647 7.54493 0.307352L7.54006 0.302284C7.46459 0.227415 7.36431 0.185649 7.26003 0.185649C7.15575 0.185649 7.05548 0.227415 6.98 0.302284L2.45646 4.78708C2.41668 4.82652 2.38501 4.87396 2.36336 4.92651C2.34172 4.97907 2.33057 5.03565 2.33057 5.09282C2.33057 5.15 2.34172 5.20658 2.36337 5.25914C2.38501 5.31169 2.41668 5.35913 2.45646 5.39857Z" fill="black"/>
</g>
<defs>
<clipPath id="clip0_29_245">
<rect width="10" height="5.45455" fill="white" transform="translate(2.33057 10) rotate(-90)"/>
</clipPath>
</defs>
</svg>
