<svg width="6" height="10" viewBox="0 0 6 10" fill="none" xmlns="http://www.w3.org/2000/svg">
<path d="M5.65926 4.78893L1.13572 0.304134C1.06025 0.229266 0.959969 0.1875 0.855691 0.1875C0.751413 0.1875 0.651137 0.229266 0.575659 0.304134L0.570789 0.309202C0.534072 0.345497 0.504835 0.389185 0.484857 0.437608C0.464878 0.486031 0.454575 0.538177 0.454575 0.590874C0.454575 0.643571 0.464878 0.695717 0.484857 0.744141C0.504835 0.792564 0.534072 0.836251 0.570789 0.872546L4.83053 5.09552L0.570788 9.3168C0.534072 9.3531 0.504835 9.39679 0.484856 9.44521C0.464878 9.49363 0.454575 9.54578 0.454575 9.59848C0.454575 9.65117 0.464878 9.70332 0.484856 9.75174C0.504835 9.80016 0.534072 9.84385 0.570788 9.88015L0.575659 9.88522C0.651136 9.96008 0.751412 10.0019 0.855691 10.0019C0.959969 10.0019 1.06025 9.96008 1.13572 9.88522L5.65926 5.40042C5.69905 5.36098 5.73072 5.31354 5.75236 5.26099C5.774 5.20843 5.78516 5.15185 5.78516 5.09468C5.78516 5.0375 5.774 4.98092 5.75236 4.92836C5.73072 4.87581 5.69905 4.82837 5.65926 4.78893Z" fill="black"/>
</svg>
