<svg width="9" height="10" viewBox="0 0 9 10" fill="none" xmlns="http://www.w3.org/2000/svg">
<path d="M8.44442 4.78893L3.92088 0.304134C3.8454 0.229266 3.74513 0.1875 3.64085 0.1875C3.53657 0.1875 3.43629 0.229266 3.36082 0.304134L3.35595 0.309202C3.31923 0.345497 3.28999 0.389185 3.27001 0.437608C3.25003 0.486031 3.23973 0.538177 3.23973 0.590874C3.23973 0.643571 3.25003 0.695717 3.27001 0.744141C3.28999 0.792564 3.31923 0.836251 3.35595 0.872546L7.61569 5.09552L3.35594 9.3168C3.31923 9.3531 3.28999 9.39679 3.27001 9.44521C3.25003 9.49363 3.23973 9.54578 3.23973 9.59848C3.23973 9.65117 3.25003 9.70332 3.27001 9.75174C3.28999 9.80016 3.31923 9.84385 3.35594 9.88015L3.36082 9.88522C3.43629 9.96008 3.53657 10.0019 3.64085 10.0019C3.74512 10.0019 3.8454 9.96008 3.92088 9.88522L8.44442 5.40042C8.4842 5.36098 8.51587 5.31354 8.53751 5.26099C8.55915 5.20843 8.57031 5.15185 8.57031 5.09468C8.57031 5.0375 8.55915 4.98092 8.53751 4.92836C8.51587 4.87581 8.4842 4.82837 8.44442 4.78893Z" fill="black"/>
<g clip-path="url(#clip0_29_255)">
<path d="M6.11385 4.60143L1.59031 0.116634C1.51484 0.0417656 1.41456 -2.10916e-07 1.31028 -2.15474e-07C1.206 -2.20032e-07 1.10573 0.0417655 1.03025 0.116634L1.02538 0.121702C0.988662 0.157997 0.959425 0.201685 0.939446 0.250108C0.919468 0.298531 0.909165 0.350677 0.909165 0.403374C0.909165 0.456071 0.919468 0.508217 0.939446 0.556641C0.959425 0.605064 0.988662 0.648751 1.02538 0.685046L5.28512 4.90802L1.02538 9.1293C0.988661 9.1656 0.959425 9.20929 0.939446 9.25771C0.919468 9.30613 0.909164 9.35828 0.909164 9.41098C0.909164 9.46367 0.919468 9.51582 0.939446 9.56424C0.959425 9.61266 0.988661 9.65635 1.02538 9.69265L1.03025 9.69772C1.10573 9.77258 1.206 9.81435 1.31028 9.81435C1.41456 9.81435 1.51484 9.77258 1.59031 9.69772L6.11385 5.21292C6.15364 5.17348 6.18531 5.12604 6.20695 5.07349C6.22859 5.02093 6.23975 4.96435 6.23975 4.90718C6.23975 4.85 6.22859 4.79342 6.20695 4.74086C6.18531 4.68831 6.15364 4.64087 6.11385 4.60143Z" fill="black"/>
</g>
<defs>
<clipPath id="clip0_29_255">
<rect width="10" height="5.45455" fill="white" transform="translate(6.23975) rotate(90)"/>
</clipPath>
</defs>
</svg>
