<svg width="38" height="50" viewBox="0 0 38 50" fill="none" xmlns="http://www.w3.org/2000/svg">
<g clip-path="url(#clip0_17_174)">
<g clip-path="url(#clip1_17_174)">
<path d="M37.75 14.0625V43.75C37.75 45.4076 37.0915 46.9973 35.9194 48.1694C34.7473 49.3415 33.1576 50 31.5 50H6.5C4.8424 50 3.25268 49.3415 2.08058 48.1694C0.90848 46.9973 0.25 45.4076 0.25 43.75V6.25C0.25 4.5924 0.90848 3.00269 2.08058 1.83058C3.25268 0.65848 4.8424 0 6.5 0L23.6875 0L37.75 14.0625ZM28.375 14.0625C27.1318 14.0625 25.9395 13.5686 25.0604 12.6896C24.1814 11.8105 23.6875 10.6182 23.6875 9.375V3.125H6.5C5.6712 3.125 4.87634 3.45424 4.29029 4.04029C3.70424 4.62634 3.375 5.4212 3.375 6.25V43.75C3.375 44.5788 3.70424 45.3737 4.29029 45.9597C4.87634 46.5458 5.6712 46.875 6.5 46.875H31.5C32.3288 46.875 33.1237 46.5458 33.7097 45.9597C34.2958 45.3737 34.625 44.5788 34.625 43.75V14.0625H28.375Z" fill="black"/>
<g clip-path="url(#clip2_17_174)">
<path d="M19.0002 18.0002C19.9162 18.0002 20.7947 17.6363 21.4425 16.9885C22.0902 16.3408 22.4541 15.4623 22.4541 14.5462C22.4541 13.6302 22.0902 12.7517 21.4425 12.1039C20.7947 11.4562 19.9162 11.0923 19.0002 11.0923C18.0841 11.0923 17.2056 11.4562 16.5579 12.1039C15.9101 12.7517 15.5462 13.6302 15.5462 14.5462C15.5462 15.4623 15.9101 16.3408 16.5579 16.9885C17.2056 17.6363 18.0841 18.0002 19.0002 18.0002ZM21.3028 14.5462C21.3028 15.1569 21.0602 15.7426 20.6284 16.1744C20.1966 16.6063 19.6109 16.8489 19.0002 16.8489C18.3895 16.8489 17.8038 16.6063 17.372 16.1744C16.9401 15.7426 16.6975 15.1569 16.6975 14.5462C16.6975 13.9355 16.9401 13.3499 17.372 12.918C17.8038 12.4862 18.3895 12.2436 19.0002 12.2436C19.6109 12.2436 20.1966 12.4862 20.6284 12.918C21.0602 13.3499 21.3028 13.9355 21.3028 14.5462ZM25.9081 23.7568C25.9081 24.9081 24.7568 24.9081 24.7568 24.9081H13.2436C13.2436 24.9081 12.0923 24.9081 12.0923 23.7568C12.0923 22.6054 13.2436 19.1515 19.0002 19.1515C24.7568 19.1515 25.9081 22.6054 25.9081 23.7568ZM24.7568 23.7522C24.7556 23.4689 24.5795 22.617 23.7989 21.8364C23.0482 21.0857 21.6355 20.3028 19.0002 20.3028C16.3648 20.3028 14.9522 21.0857 14.2015 21.8364C13.4209 22.617 13.2459 23.4689 13.2436 23.7522H24.7568Z" fill="black"/>
</g>
<line x1="13" y1="34.5" x2="26" y2="34.5" stroke="black"/>
<line x1="13" y1="40.5" x2="26" y2="40.5" stroke="black"/>
</g>
</g>
<defs>
<clipPath id="clip0_17_174">
<rect width="38" height="50" fill="white"/>
</clipPath>
<clipPath id="clip1_17_174">
<rect width="38" height="50" fill="white"/>
</clipPath>
<clipPath id="clip2_17_174">
<rect width="14" height="14" fill="white" transform="translate(12 11)"/>
</clipPath>
</defs>
</svg>
