<svg width="38" height="50" viewBox="0 0 38 50" fill="none" xmlns="http://www.w3.org/2000/svg">
<g clip-path="url(#clip0_17_83)">
<path d="M37.5 14.0625V43.75C37.5 45.4076 36.8415 46.9973 35.6694 48.1694C34.4973 49.3415 32.9076 50 31.25 50H6.25C4.5924 50 3.00268 49.3415 1.83058 48.1694C0.65848 46.9973 0 45.4076 0 43.75V6.25C0 4.5924 0.65848 3.00269 1.83058 1.83058C3.00268 0.65848 4.5924 0 6.25 0L23.4375 0L37.5 14.0625ZM28.125 14.0625C26.8818 14.0625 25.6895 13.5686 24.8104 12.6896C23.9314 11.8105 23.4375 10.6182 23.4375 9.375V3.125H6.25C5.4212 3.125 4.62634 3.45424 4.04029 4.04029C3.45424 4.62634 3.125 5.4212 3.125 6.25V43.75C3.125 44.5788 3.45424 45.3737 4.04029 45.9597C4.62634 46.5458 5.4212 46.875 6.25 46.875H31.25C32.0788 46.875 32.8737 46.5458 33.4597 45.9597C34.0458 45.3737 34.375 44.5788 34.375 43.75V14.0625H28.125Z" fill="black"/>
<path d="M9.12808 43C8.80093 43 8.48717 42.8645 8.25583 42.6234C8.02449 42.3823 7.89453 42.0553 7.89453 41.7143V36.5714C7.89453 36.2304 8.02449 35.9034 8.25583 35.6623C8.48717 35.4212 8.80093 35.2857 9.12808 35.2857H11.5952C11.9223 35.2857 12.2361 35.4212 12.4674 35.6623C12.6988 35.9034 12.8287 36.2304 12.8287 36.5714V41.7143C12.8287 42.0553 12.6988 42.3823 12.4674 42.6234C12.2361 42.8645 11.9223 43 11.5952 43H9.12808ZM16.5294 43C16.2022 43 15.8885 42.8645 15.6571 42.6234C15.4258 42.3823 15.2958 42.0553 15.2958 41.7143V31.4286C15.2958 31.0876 15.4258 30.7606 15.6571 30.5194C15.8885 30.2783 16.2022 30.1429 16.5294 30.1429H18.9965C19.3237 30.1429 19.6374 30.2783 19.8688 30.5194C20.1001 30.7606 20.2301 31.0876 20.2301 31.4286V41.7143C20.2301 42.0553 20.1001 42.3823 19.8688 42.6234C19.6374 42.8645 19.3237 43 18.9965 43H16.5294ZM23.9307 43C23.6036 43 23.2898 42.8645 23.0585 42.6234C22.8271 42.3823 22.6972 42.0553 22.6972 41.7143V26.2857C22.6972 25.9447 22.8271 25.6177 23.0585 25.3766C23.2898 25.1355 23.6036 25 23.9307 25H26.3978C26.725 25 27.0387 25.1355 27.2701 25.3766C27.5014 25.6177 27.6314 25.9447 27.6314 26.2857V41.7143C27.6314 42.0553 27.5014 42.3823 27.2701 42.6234C27.0387 42.8645 26.725 43 26.3978 43H23.9307Z" fill="black"/>
</g>
<defs>
<clipPath id="clip0_17_83">
<rect width="37.5" height="50" fill="white"/>
</clipPath>
</defs>
</svg>
