<svg width="27" height="28" viewBox="0 0 27 28" fill="none" xmlns="http://www.w3.org/2000/svg">
<path d="M9.4165 22.5C10.383 22.5 11.1665 21.7165 11.1665 20.75C11.1665 19.7835 10.383 19 9.4165 19C8.45001 19 7.6665 19.7835 7.6665 20.75C7.6665 21.7165 8.45001 22.5 9.4165 22.5Z" fill="white"/>
<path d="M19.9165 22.5C20.883 22.5 21.6665 21.7165 21.6665 20.75C21.6665 19.7835 20.883 19 19.9165 19C18.95 19 18.1665 19.7835 18.1665 20.75C18.1665 21.7165 18.95 22.5 19.9165 22.5Z" fill="white"/>
<path d="M4.1665 5H6.49984L7.19984 8.5M7.19984 8.5L8.83317 16.6667H20.4998L22.8332 8.5H7.19984Z" stroke="white" stroke-width="2" stroke-linecap="round" stroke-linejoin="round"/>
</svg>
