<svg width="25" height="8" viewBox="0 0 25 8" fill="none" xmlns="http://www.w3.org/2000/svg">
<path d="M0.4 7.5V0.903H1.255L3.658 5.061L4.369 6.429H4.414C4.36 5.763 4.297 5.016 4.297 4.332V0.903H5.098V7.5H4.234L1.84 3.342L1.129 1.983H1.084C1.129 2.649 1.192 3.342 1.192 4.044V7.5H0.4ZM6.90391 7.5V0.903H10.7019V1.605H7.74091V3.675H10.2339V4.386H7.74091V6.798H10.8009V7.5H6.90391ZM12.9327 7.5L11.5287 0.903H12.3837L13.0767 4.503C13.2117 5.205 13.3377 5.916 13.4727 6.636H13.5087C13.6617 5.916 13.8237 5.205 13.9857 4.503L14.8947 0.903H15.6507L16.5687 4.503C16.7307 5.205 16.8837 5.916 17.0457 6.636H17.0907C17.2167 5.916 17.3427 5.205 17.4597 4.503L18.1617 0.903H18.9627L17.5947 7.5H16.5867L15.5967 3.522C15.4797 3.009 15.3717 2.532 15.2727 2.019H15.2367C15.1287 2.532 15.0117 3.009 14.9037 3.522L13.9227 7.5H12.9327ZM21.853 7.626C20.926 7.626 20.125 7.248 19.549 6.645L20.044 6.069C20.521 6.573 21.187 6.888 21.871 6.888C22.735 6.888 23.248 6.456 23.248 5.817C23.248 5.133 22.771 4.917 22.15 4.647L21.205 4.233C20.584 3.972 19.864 3.504 19.864 2.541C19.864 1.524 20.737 0.786 21.943 0.786C22.726 0.786 23.419 1.119 23.878 1.605L23.437 2.136C23.032 1.758 22.546 1.515 21.943 1.515C21.196 1.515 20.71 1.893 20.71 2.478C20.71 3.126 21.286 3.36 21.799 3.576L22.735 3.981C23.509 4.314 24.094 4.773 24.094 5.754C24.094 6.798 23.239 7.626 21.853 7.626Z" fill="black"/>
</svg>
