<svg width="20" height="16" viewBox="0 0 20 16" fill="none" xmlns="http://www.w3.org/2000/svg">
<g clip-path="url(#clip0_29_212)">
<path d="M9.80745 15.5889C10.3592 15.5889 10.7569 15.183 10.7569 14.6391V1.69005C10.7569 1.14622 10.3592 0.691406 9.79082 0.691406C9.39317 0.691406 9.13338 0.886424 8.69485 1.27611L4.87936 4.66138C4.83052 4.70987 4.75743 4.73447 4.67638 4.73447H2.26516C1.11237 4.73447 0.543945 5.31086 0.543945 6.53673V9.76821C0.543945 10.9944 1.11202 11.5705 2.26516 11.5705H4.67603C4.75743 11.5705 4.83052 11.5947 4.87936 11.6436L8.69485 15.0617C9.09285 15.4185 9.40945 15.5893 9.8071 15.5893M16.8215 13.9332C17.1378 14.1441 17.5274 14.0631 17.755 13.7382C18.8264 12.2445 19.4516 10.2556 19.4516 8.17724C19.4516 6.09058 18.8347 4.10161 17.755 2.60763C17.5195 2.29103 17.1378 2.20998 16.8212 2.42093C16.5129 2.63223 16.464 3.02988 16.7075 3.37905C17.5926 4.67801 18.1447 6.38294 18.1447 8.17724C18.1447 9.97154 17.6088 11.6924 16.7075 12.9751C16.472 13.3242 16.5132 13.7219 16.8215 13.9332ZM9.33567 13.8764C9.29514 13.8764 9.2463 13.8521 9.19746 13.8033L5.60228 10.5635C5.40726 10.3848 5.2448 10.3443 5.02588 10.3443H2.32196C2.00536 10.3443 1.85087 10.1981 1.85087 9.87316V6.43109C1.85087 6.11449 2.00536 5.96034 2.32196 5.96034H5.02554C5.24446 5.96034 5.39895 5.92778 5.60193 5.74108L9.19815 2.47739C9.23902 2.44518 9.28752 2.41262 9.33636 2.41262C9.4091 2.41262 9.44997 2.46111 9.44997 2.52623V13.7541C9.44997 13.8272 9.40945 13.876 9.33636 13.876M13.5824 11.7409C13.8585 11.9356 14.2561 11.8704 14.4917 11.5538C15.1249 10.7017 15.5066 9.45126 15.5066 8.17654C15.5066 6.90183 15.1169 5.66002 14.4917 4.79128C14.2561 4.47468 13.8664 4.40955 13.5824 4.60423C13.2249 4.83977 13.1844 5.25405 13.4442 5.61118C13.9153 6.24438 14.1993 7.21046 14.1993 8.17654C14.1993 9.14297 13.899 10.1091 13.4362 10.7502C13.1927 11.0994 13.2332 11.497 13.5824 11.7409Z" fill="#FF8908"/>
</g>
<defs>
<clipPath id="clip0_29_212">
<rect width="20" height="15.3846" fill="white" transform="translate(0 0.308594)"/>
</clipPath>
</defs>
</svg>
