<svg width="10" height="9" viewBox="0 0 10 9" fill="none" xmlns="http://www.w3.org/2000/svg">
<path fill-rule="evenodd" clip-rule="evenodd" d="M0 4.49981C0 4.33405 0.0658482 4.17508 0.183058 4.05787C0.300269 3.94066 0.45924 3.87481 0.625 3.87481H7.86625L5.1825 1.19231C5.06514 1.07496 4.99921 0.915783 4.99921 0.749813C4.99921 0.583843 5.06514 0.424671 5.1825 0.307313C5.29986 0.189955 5.45903 0.124023 5.625 0.124023C5.79097 0.124023 5.95014 0.189955 6.0675 0.307313L9.8175 4.05731C9.87571 4.11537 9.92188 4.18434 9.95339 4.26027C9.9849 4.3362 10.0011 4.4176 10.0011 4.49981C10.0011 4.58202 9.9849 4.66342 9.95339 4.73935C9.92188 4.81529 9.87571 4.88426 9.8175 4.94231L6.0675 8.69231C5.95014 8.80967 5.79097 8.8756 5.625 8.8756C5.45903 8.8756 5.29986 8.80967 5.1825 8.69231C5.06514 8.57495 4.99921 8.41578 4.99921 8.24981C4.99921 8.08384 5.06514 7.92467 5.1825 7.80731L7.86625 5.12481H0.625C0.45924 5.12481 0.300269 5.05897 0.183058 4.94176C0.0658482 4.82455 0 4.66557 0 4.49981Z" fill="#8B95A1"/>
</svg>
