<svg width="22" height="14" viewBox="0 0 22 14" fill="none" xmlns="http://www.w3.org/2000/svg">
<path d="M10.3211 1.08769L0.364886 11.5371C0.198677 11.7114 0.105957 11.9431 0.105957 12.1839C0.105957 12.4248 0.198677 12.6565 0.364886 12.8308L0.376136 12.8421C0.456711 12.9269 0.553698 12.9944 0.661197 13.0406C0.768696 13.0867 0.884461 13.1105 1.00145 13.1105C1.11844 13.1105 1.2342 13.0867 1.3417 13.0406C1.4492 12.9944 1.54619 12.9269 1.62676 12.8421L11.0018 3.00206L20.373 12.8421C20.4536 12.9269 20.5506 12.9944 20.6581 13.0406C20.7656 13.0867 20.8813 13.1105 20.9983 13.1105C21.1153 13.1105 21.2311 13.0867 21.3386 13.0406C21.4461 12.9944 21.5431 12.9269 21.6236 12.8421L21.6349 12.8308C21.8011 12.6565 21.8938 12.4248 21.8938 12.1839C21.8938 11.9431 21.8011 11.7114 21.6349 11.5371L11.6786 1.08769C11.5911 0.99579 11.4858 0.922629 11.3691 0.87264C11.2524 0.822651 11.1268 0.796875 10.9999 0.796875C10.873 0.796875 10.7473 0.822651 10.6307 0.87264C10.514 0.922629 10.4087 0.99579 10.3211 1.08769Z" fill="black"/>
</svg>
