<svg width="21" height="17" viewBox="0 0 21 17" fill="none" xmlns="http://www.w3.org/2000/svg">
<path d="M18.333 0.5H2.58301C2.1193 0.501385 1.67499 0.686204 1.3471 1.01409C1.01921 1.34198 0.834393 1.7863 0.833008 2.25V14.5C0.834393 14.9637 1.01921 15.408 1.3471 15.7359C1.67499 16.0638 2.1193 16.2486 2.58301 16.25H18.333C18.7967 16.2486 19.241 16.0638 19.5689 15.7359C19.8968 15.408 20.0816 14.9637 20.083 14.5V2.25C20.0816 1.7863 19.8968 1.34198 19.5689 1.01409C19.241 0.686204 18.7967 0.501385 18.333 0.5ZM18.333 14.5H2.58301V2.25H18.333V14.5Z" fill="white"/>
</svg>
