<svg width="7" height="12" viewBox="0 0 7 12" fill="none" xmlns="http://www.w3.org/2000/svg">
<path d="M0.379034 0.931052L4.99003 5.61605C5.09116 5.71827 5.14788 5.85626 5.14788 6.00005C5.14788 6.14384 5.09116 6.28183 4.99003 6.38405L0.380034 11.0691C0.278958 11.1719 0.222322 11.3103 0.222322 11.4546C0.222322 11.5988 0.278958 11.7372 0.380034 11.8401C0.429411 11.8907 0.488427 11.931 0.553604 11.9584C0.618781 11.9859 0.6888 12.0001 0.759534 12.0001C0.830269 12.0001 0.900287 11.9859 0.965464 11.9584C1.03064 11.931 1.08966 11.8907 1.13903 11.8401L5.74903 7.15605C6.05196 6.84753 6.22168 6.43243 6.22168 6.00005C6.22168 5.56768 6.05196 5.15257 5.74903 4.84405L1.13903 0.160053C1.08964 0.109251 1.03056 0.0688684 0.965295 0.0412936C0.900025 0.0137189 0.829889 -0.000488517 0.759034 -0.00048852C0.688179 -0.000488523 0.618044 0.0137189 0.552774 0.0412936C0.487505 0.0688683 0.428427 0.109251 0.379034 0.160053C0.277958 0.262908 0.221322 0.401346 0.221322 0.545552C0.221322 0.689759 0.277958 0.828197 0.379034 0.931052Z" fill="#9E9E9E"/>
</svg>
