<svg width="48" height="14" viewBox="0 0 48 14" fill="none" xmlns="http://www.w3.org/2000/svg">
<path d="M8.708 2.018V2.942H1.078V2.018H4.326V0.492H5.474V2.018H8.708ZM2.968 5.98C2.968 6.848 3.752 7.408 4.9 7.408C6.034 7.408 6.818 6.848 6.818 5.98C6.818 5.098 6.034 4.538 4.9 4.538C3.752 4.538 2.968 5.098 2.968 5.98ZM5.474 8.276V9.592C6.664 9.536 7.882 9.452 9.03 9.298L9.114 10.152C6.314 10.614 3.29 10.656 0.98 10.656L0.812 9.69C1.876 9.69 3.08 9.676 4.326 9.634V8.29C2.842 8.108 1.876 7.24 1.876 5.98C1.876 4.566 3.108 3.656 4.9 3.656C6.692 3.656 7.91 4.566 7.91 5.98C7.91 7.226 6.958 8.094 5.474 8.276ZM9.828 0.492H10.976V13.036H9.828V0.492ZM17.8349 1.57V3.824C17.8349 6.036 19.2629 8.318 21.0269 9.2L20.3129 10.11C18.9829 9.396 17.8489 7.926 17.2749 6.204C16.7289 8.038 15.5669 9.606 14.1529 10.362L13.4669 9.438C15.2729 8.514 16.7009 6.106 16.7009 3.824V1.57H17.8349ZM25.3529 5.574V6.526H23.2809V13.036H22.1329V0.492H23.2809V5.574H25.3529ZM31.6798 6.092V2.354H28.2078V6.092H31.6798ZM35.6838 3.446H32.7998V5H35.6838V3.446ZM32.7998 5.924V7.002H27.0738V1.43H32.7998V2.522H35.6838V0.492H36.8458V7.912H35.6838V5.924H32.7998ZM32.6878 12.126C34.5918 12.126 35.7398 11.58 35.7398 10.656C35.7398 9.732 34.5918 9.186 32.6878 9.186C30.8118 9.186 29.6638 9.732 29.6638 10.656C29.6638 11.58 30.8118 12.126 32.6878 12.126ZM32.6878 8.29C35.2778 8.29 36.8738 9.144 36.8738 10.656C36.8738 12.154 35.2778 13.022 32.6878 13.022C30.1118 13.022 28.5158 12.154 28.5158 10.656C28.5158 9.144 30.1118 8.29 32.6878 8.29Z" fill="black"/>
<path d="M43.9236 5.406L43.3076 4.958L44.1896 3.502L42.6636 2.872L42.9156 2.158L44.5116 2.55L44.6516 0.855999H45.4076L45.5476 2.536L47.1436 2.158L47.3816 2.872L45.8556 3.502L46.7516 4.958L46.1356 5.406L45.0296 4.076L43.9236 5.406Z" fill="#FA5D62"/>
</svg>
